<?xml version="1.0" encoding="utf-8"?>
<!-- Generator: Adobe Illustrator 23.0.2, SVG Export Plug-In . SVG Version: 6.00 Build 0)  -->
<svg version="1.1" id="Capa_1" xmlns="http://www.w3.org/2000/svg" xmlns:xlink="http://www.w3.org/1999/xlink" x="0px" y="0px"
	 viewBox="0 0 24 24" style="enable-background:new 0 0 24 24;" xml:space="preserve">
<g>
	<g>
		<path d="M14.9,6.8H6.1c-0.3,0-0.6-0.3-0.6-0.6s0.3-0.6,0.6-0.6h8.8c0.3,0,0.6,0.3,0.6,0.6S15.2,6.8,14.9,6.8z"/>
	</g>
	<g>
		<path d="M14.9,10.5H6.1c-0.3,0-0.6-0.3-0.6-0.6s0.3-0.6,0.6-0.6h8.8c0.3,0,0.6,0.3,0.6,0.6S15.2,10.5,14.9,10.5z"/>
	</g>
	<g>
		<path d="M14.8,14.3H6.1c-0.3,0-0.6-0.3-0.6-0.6s0.3-0.6,0.6-0.6h8.7c0.3,0,0.6,0.3,0.6,0.6S15.1,14.3,14.8,14.3z"/>
	</g>
	<g>
		<path d="M8.1,21.8H6.3c-2.5,0-4.6-2.1-4.6-4.6V6.4c0-2.5,2.1-4.6,4.6-4.6h8.3l0,0c2.5,0,4.5,1.9,4.6,4.4v11c0,0.3-0.3,0.6-0.6,0.6
			c-0.3,0-0.6-0.3-0.6-0.6V6.3C17.9,4.5,16.4,3,14.6,3l0,0H6.3C4.4,3,2.9,4.5,2.9,6.4v10.8c0,1.9,1.5,3.4,3.4,3.4h1.8
			c0.3,0,0.6,0.3,0.6,0.6S8.4,21.8,8.1,21.8z"/>
	</g>
	<g>
		<path d="M21.7,22.2H11.5C10.1,22.1,9,21,9.1,19.6c-0.1-1.3,1-2.5,2.4-2.5h10.2c0.3,0,0.6,0.3,0.6,0.6c0,0.3-0.3,0.6-0.6,0.6H11.5
			c-0.7,0-1.2,0.6-1.2,1.3c0,0.8,0.5,1.4,1.2,1.4h10.2c0.3,0,0.6,0.3,0.6,0.6C22.3,22,22,22.2,21.7,22.2z"/>
	</g>
</g>
</svg>
