<?xml version="1.0" encoding="utf-8"?>
<!-- Generator: Adobe Illustrator 22.1.0, SVG Export Plug-In . SVG Version: 6.00 Build 0)  -->
<svg version="1.1" id="Layer_1" xmlns="http://www.w3.org/2000/svg" xmlns:xlink="http://www.w3.org/1999/xlink" x="0px" y="0px"
	 viewBox="0 0 24 24" style="enable-background:new 0 0 24 24;" xml:space="preserve">
<style type="text/css">
	.st0{fill:none;}
</style>
<g>
	<path class="st0" d="M0,0h24v24H0V0z"/>
	<path d="M21.4,15.1h-0.7h0V7.2c0-2.5-2.1-4.6-4.6-4.6H7.8c-2.5,0-4.6,2.1-4.6,4.6v7.9h0H2.6c-0.3,0-0.6,0.3-0.6,0.6
		s0.3,0.6,0.6,0.6h7l-4.1,4.1c-0.2,0.2-0.2,0.6,0,0.8c0.1,0.1,0.3,0.2,0.4,0.2s0.3-0.1,0.4-0.2l4.9-4.9h1.6l4.9,4.9
		c0.1,0.1,0.3,0.2,0.4,0.2c0.2,0,0.3-0.1,0.4-0.2c0.2-0.2,0.2-0.6,0-0.8l-4.1-4.1h6.9c0.3,0,0.6-0.3,0.6-0.6S21.8,15.1,21.4,15.1z
		 M4.4,15.1V7.2c0-1.9,1.5-3.4,3.4-3.4h8.3c1.9,0,3.4,1.5,3.4,3.4v7.9H4.4z"/>
</g>
</svg>
