<?xml version="1.0" encoding="utf-8"?>
<!-- Generator: Adobe Illustrator 22.1.0, SVG Export Plug-In . SVG Version: 6.00 Build 0)  -->
<svg version="1.1" id="Layer_1" xmlns="http://www.w3.org/2000/svg" xmlns:xlink="http://www.w3.org/1999/xlink" x="0px" y="0px"
	 viewBox="0 0 24 24" style="enable-background:new 0 0 24 24;" xml:space="preserve">
<style type="text/css">
	.st0{fill:none;}
</style>
<g>
	<path d="M22,14.6l0-4.1c0-2.6-2.1-4.7-4.7-4.7H17c0-0.3,0-0.8,0-1.3C17,3.1,15.9,2,14.5,2h-5C8.2,2,7.1,3.1,7.1,4.5
		c0,0.5,0,0.9,0,1.3H6.7C4.1,5.8,2,7.9,2,10.5l0,2.8h0l0,4.1C2,19.9,4.1,22,6.7,22h10.7c2.6,0,4.7-2.1,4.7-4.7V14.6L22,14.6z
		 M8.3,4.4c0-0.7,0.6-1.3,1.3-1.3h5c0.7,0,1.3,0.6,1.3,1.3c0,0.5,0,1,0,1.3l-5.9,0H8.2C8.2,5.4,8.3,5,8.3,4.4z M20.8,16.8
		c0,2.2-1.8,4-4,4H7.2c-2.2,0-4-1.8-4-4l0-2.2h0l0-3.5c0-2.2,1.8-4,4-4h9.5c2.2,0,4,1.8,4,4l0,2.2h0L20.8,16.8z"/>
	<path class="st0" d="M0,0h24v24H0V0z"/>
</g>
</svg>
