<?xml version="1.0" encoding="utf-8"?>
<!-- Generator: Adobe Illustrator 24.3.0, SVG Export Plug-In . SVG Version: 6.00 Build 0)  -->
<svg version="1.1" id="Capa_1" xmlns="http://www.w3.org/2000/svg" xmlns:xlink="http://www.w3.org/1999/xlink" x="0px" y="0px"
	 viewBox="0 0 24 24" style="enable-background:new 0 0 24 24;" xml:space="preserve">
<style type="text/css">
	.st0{fill:none;}
</style>
<g>
	<g>
		<path d="M16.2,22.1H7.8c-2.5,0-4.6-2.1-4.6-4.6V6.7c0-2.5,2.1-4.6,4.6-4.6h8.4c2.5,0,4.6,2.1,4.6,4.6v10.7
			C20.8,20,18.7,22.1,16.2,22.1z M7.8,3.3C6,3.3,4.4,4.8,4.4,6.7v10.7c0,1.9,1.5,3.4,3.4,3.4h8.4c1.9,0,3.4-1.5,3.4-3.4V6.7
			c0-1.9-1.5-3.4-3.4-3.4H7.8z"/>
	</g>
	<g>
		<circle cx="16.7" cy="12.1" r="1.3"/>
	</g>
	<rect class="st0" width="24" height="24"/>
</g>
</svg>
