<?xml version="1.0" encoding="utf-8"?>
<!-- Generator: Adobe Illustrator 22.1.0, SVG Export Plug-In . SVG Version: 6.00 Build 0)  -->
<svg version="1.1" id="Layer_1" xmlns="http://www.w3.org/2000/svg" xmlns:xlink="http://www.w3.org/1999/xlink" x="0px" y="0px"
	 viewBox="0 0 24 24" style="enable-background:new 0 0 24 24;" xml:space="preserve">
<style type="text/css">
	.st0{fill:none;}
</style>
<g>
	<path class="st0" d="M0,0h24v24H0V0z"/>
	<path d="M20.8,12.6V6.5c0-2.5-2.1-4.6-4.6-4.6H7.8C5.3,1.9,3.2,4,3.2,6.5v6.8h0v4.1c0,2.5,2.1,4.6,4.6,4.6h8.3
		c2.5,0,4.6-2.1,4.6-4.6L20.8,12.6L20.8,12.6z M9.6,3.2v5.7c0,0.4-0.3,0.7-0.7,0.7S8.3,9.2,8.3,8.9V3.2H9.6z M19.6,17.5
		c0,1.9-1.5,3.4-3.4,3.4H7.8c-1.9,0-3.4-1.5-3.4-3.4v-4.9h0V6.5c0-1.6,1.1-3,2.7-3.3v5.7c0,1,0.8,1.9,1.9,1.9s1.9-0.8,1.9-1.9V5.6
		V3.2v0h5.3c1.9,0,3.4,1.5,3.4,3.4v6.8h0V17.5z"/>
</g>
</svg>
