<?xml version="1.0" encoding="utf-8"?>
<!-- Generator: Adobe Illustrator 22.1.0, SVG Export Plug-In . SVG Version: 6.00 Build 0)  -->
<svg version="1.1" id="Capa_1" xmlns="http://www.w3.org/2000/svg" xmlns:xlink="http://www.w3.org/1999/xlink" x="0px" y="0px"
	 viewBox="0 0 24 24" style="enable-background:new 0 0 24 24;" xml:space="preserve">
<style type="text/css">
	.st0{fill:none;}
</style>
<g>
	<path class="st0" d="M0,0h24v24H0V0z"/>
	<path class="st0" d="M0,0h24v24H0V0z"/>
	<path class="st0" d="M0,0h24v24H0V0z"/>
	<path class="st0" d="M0,0h24v24H0V0z"/>
	<rect x="0" y="0" class="st0" width="24" height="24"/>
	<rect class="st0" width="24" height="24"/>
	<path class="st0" d="M0,0h24v24H0V0z"/>
	<rect x="0" y="0" class="st0" width="24" height="24"/>
	<path class="st0" d="M0,0h24v24H0V0z"/>
	<rect class="st0" width="24" height="24"/>
	<g>
		<path d="M16.6,12.6c0,0.4-0.3,0.8-0.8,0.8h-3v3c0,0.4-0.3,0.8-0.8,0.8c-0.4,0-0.8-0.3-0.8-0.8v-3h-3c-0.4,0-0.8-0.3-0.8-0.8
			c0-0.4,0.3-0.8,0.8-0.8h3v-3c0-0.4,0.3-0.8,0.8-0.8c0.4,0,0.8,0.3,0.8,0.8v3h3C16.3,11.9,16.6,12.2,16.6,12.6z"/>
		<path d="M16.8,3.1H7.3c-2.2,0-4,1.8-4,4v9.5c0,2.2,1.8,4,4,4h9.5c2.2,0,4-1.8,4-4V7.2C20.8,4.9,19,3.1,16.8,3.1z M7.3,4.4h9.5
			c0.9,0,1.8,0.5,2.3,1.2H5C5.5,4.9,6.3,4.4,7.3,4.4z M19.6,16.7c0,1.5-1.2,2.8-2.8,2.8H7.3c-1.5,0-2.8-1.2-2.8-2.8V7.2
			c0-0.1,0-0.3,0-0.4c0.1,0,0.2,0.1,0.3,0.1h14.8c0,0.1,0,0.2,0,0.3V16.7z"/>
	</g>
</g>
</svg>
