<?xml version="1.0" encoding="utf-8"?>
<!-- Generator: Adobe Illustrator 22.1.0, SVG Export Plug-In . SVG Version: 6.00 Build 0)  -->
<svg version="1.1" id="Layer_1" xmlns="http://www.w3.org/2000/svg" xmlns:xlink="http://www.w3.org/1999/xlink" x="0px" y="0px"
	 viewBox="0 0 24 24" style="enable-background:new 0 0 24 24;" xml:space="preserve">
<style type="text/css">
	.st0{fill:none;}
</style>
<g>
	<path d="M18.3,17.4L12.9,12l5.4-5.4c0.2-0.2,0.2-0.6,0-0.9c-0.2-0.2-0.6-0.2-0.9,0L12,11.1L6.6,5.8C6.4,5.5,6,5.5,5.8,5.8
		s-0.2,0.6,0,0.9l5.3,5.3l-5.3,5.3c-0.2,0.2-0.2,0.6,0,0.9l0,0c0.2,0.2,0.6,0.3,0.9,0l5.3-5.3l5.4,5.4c0.2,0.2,0.6,0.2,0.9,0l0,0
		C18.5,18,18.5,17.6,18.3,17.4z"/>
	<path class="st0" d="M0,0h24v24H0V0z"/>
</g>
</svg>
