<?xml version="1.0" encoding="utf-8"?>
<!-- Generator: Adobe Illustrator 23.0.2, SVG Export Plug-In . SVG Version: 6.00 Build 0)  -->
<svg version="1.1" id="Layer_1" xmlns="http://www.w3.org/2000/svg" xmlns:xlink="http://www.w3.org/1999/xlink" x="0px" y="0px"
	 viewBox="0 0 24 24" style="enable-background:new 0 0 24 24;" xml:space="preserve">
<style type="text/css">
	.st0{fill:none;}
</style>
<g>
	<path class="st0" d="M0,0h24v24H0V0z"/>
	<path class="st0" d="M0,0h24v24H0V0z"/>
	<rect class="st0" width="24" height="24"/>
	<rect class="st0" width="24" height="24"/>
	<path class="st0" d="M0,0h24v24H0V0z"/>
	<path d="M22.1,18.2c0,0.3-0.3,0.6-0.6,0.6H19v2.5c0,0.3-0.3,0.6-0.6,0.6c-0.3,0-0.6-0.3-0.6-0.6v-2.5h-2.5c-0.3,0-0.6-0.3-0.6-0.6
		c0-0.3,0.3-0.6,0.6-0.6h2.5v-2.5c0-0.3,0.3-0.6,0.6-0.6c0.3,0,0.6,0.3,0.6,0.6v2.5h2.5C21.8,17.6,22.1,17.9,22.1,18.2z"/>
	<path d="M20,4c-1.1-1.1-2.9-1.1-4,0L4.1,16c-1.1,1.1-1.1,2.8,0,3.9c0.5,0.5,1.2,0.8,2,0.8l0,0c0.7,0,1.4-0.3,2-0.8L20,8
		c0.5-0.5,0.8-1.2,0.8-2S20.5,4.6,20,4z M7.2,19.1c-0.3,0.3-0.7,0.5-1.1,0.5l0,0c-0.4,0-0.8-0.2-1.1-0.5c-0.6-0.6-0.6-1.6,0-2.2
		L15.2,6.5l2.3,2.3L7.2,19.1z M19.1,7.1l-0.8,0.8L16,5.6l0.8-0.8c0.6-0.6,1.6-0.6,2.3,0C19.8,5.5,19.8,6.5,19.1,7.1z"/>
</g>
</svg>
