<?xml version="1.0" encoding="utf-8"?>
<!-- Generator: Adobe Illustrator 22.1.0, SVG Export Plug-In . SVG Version: 6.00 Build 0)  -->
<svg version="1.1" id="Layer_1" xmlns="http://www.w3.org/2000/svg" xmlns:xlink="http://www.w3.org/1999/xlink" x="0px" y="0px"
	 viewBox="0 0 24 24" style="enable-background:new 0 0 24 24;" xml:space="preserve">
<style type="text/css">
	.st0{fill:none;}
</style>
<g>
	<path class="st0" d="M24,0v24H0V0H24z"/>
	<g>
		<path d="M13.3,12c0,0.7-0.6,1.3-1.3,1.3c-0.7,0-1.3-0.6-1.3-1.3c0-0.7,0.6-1.3,1.3-1.3C12.7,10.6,13.3,11.2,13.3,12 M14.5,12
			c0-1.4-1.1-2.5-2.5-2.5S9.5,10.6,9.5,12c0,1.4,1.1,2.5,2.5,2.5S14.5,13.4,14.5,12L14.5,12z"/>
		<path d="M13.3,18.2c0,0.7-0.6,1.3-1.3,1.3c-0.7,0-1.3-0.6-1.3-1.3c0-0.7,0.6-1.3,1.3-1.3C12.7,16.9,13.3,17.5,13.3,18.2
			 M14.5,18.2c0-1.4-1.1-2.5-2.5-2.5s-2.5,1.1-2.5,2.5c0,1.4,1.1,2.5,2.5,2.5S14.5,19.6,14.5,18.2L14.5,18.2z"/>
		<path d="M13.3,5.7c0,0.7-0.6,1.3-1.3,1.3c-0.7,0-1.3-0.6-1.3-1.3c0-0.7,0.6-1.3,1.3-1.3C12.7,4.4,13.3,5,13.3,5.7 M14.5,5.7
			c0-1.4-1.1-2.5-2.5-2.5S9.5,4.3,9.5,5.7c0,1.4,1.1,2.5,2.5,2.5S14.5,7.1,14.5,5.7L14.5,5.7z"/>
	</g>
</g>
</svg>
