<?xml version="1.0" encoding="utf-8"?>
<!-- Generator: Adobe Illustrator 22.1.0, SVG Export Plug-In . SVG Version: 6.00 Build 0)  -->
<svg version="1.1" id="Layer_1" xmlns="http://www.w3.org/2000/svg" xmlns:xlink="http://www.w3.org/1999/xlink" x="0px" y="0px"
	 viewBox="0 0 24 24" style="enable-background:new 0 0 24 24;" xml:space="preserve">
<style type="text/css">
	.st0{fill:none;}
</style>
<g>
	<path d="M20.8,6.6c-1.1-1.1-2.5-1.4-3.8-1.2c-0.6,0-1.1-0.1-1.6-0.5c-0.3-0.3-0.7-0.6-1-0.9c-2.7-2.4-6.8-2.5-9.6-0.1L3,2.2
		c-0.2-0.2-0.6-0.2-0.9,0c-0.2,0.2-0.2,0.6,0,0.9l1.7,1.7c-2.4,2.9-2.3,7.2,0.4,9.9c0.1,0.1,0.3,0.3,0.4,0.4
		c0.1,0.1,0.2,0.2,0.3,0.3c0.4,0.5,0.5,1.1,0.4,1.8c0,0.1,0,0.1,0,0.2c0,0,0,0.1,0,0.1l0,0c-0.1,1.2,0.3,2.4,1.3,3.3
		c1.7,1.7,4.1,1.6,5.9,0.2c0.1,0,0.3,0.1,0.3,0.1c1.6,0.4,3.2,0,4.5-1.2c1.2-1.2,1.6-2.9,1.2-4.5c0,0,0-0.1,0-0.2l2.1-2.1
		C22.4,11.2,22.6,8.4,20.8,6.6z M16.4,18.9c-0.8,0.8-1.8,1.1-2.8,1l3.8-3.8C17.5,17.1,17.2,18.2,16.4,18.9z M12.1,19.6
		c-1.4,1.4-3.3,1.6-4.7,0.2c-0.7-0.7-1-1.6-0.9-2.5l0,0c0-0.3,0.1-0.8,0.1-1.1c0-0.7-0.3-1.2-0.5-1.4c-0.4-0.3-0.7-0.7-1-1.1
		c-2.4-2.4-2.6-6.2-0.1-8.7s6.2-2.4,8.7,0c0.4,0.3,0.7,0.7,1,1c0.2,0.2,0.7,0.5,1.4,0.5c0.3,0,0.7,0,1-0.1c0,0,0,0,0,0
		c0.9-0.1,1.9,0.1,2.7,0.8c1.4,1.4,1,3.4-0.3,4.8L12.1,19.6z"/>
	<path class="st0" d="M0,0h24v24H0V0z"/>
</g>
</svg>
