<?xml version="1.0" encoding="utf-8"?>
<!-- Generator: Adobe Illustrator 22.1.0, SVG Export Plug-In . SVG Version: 6.00 Build 0)  -->
<svg version="1.1" id="Layer_1" xmlns="http://www.w3.org/2000/svg" xmlns:xlink="http://www.w3.org/1999/xlink" x="0px" y="0px"
	 viewBox="0 0 24 24" style="enable-background:new 0 0 24 24;" xml:space="preserve">
<style type="text/css">
	.st0{}
</style>
<g>
	<path class="st0" d="M0,0h24v24H0V0z"/>
	<path d="M18.9,5.8h-3.1c-0.5-1.5-2-2.5-3.8-2.5c-1.7,0-3.2,1.1-3.7,2.5H5.1C4.8,5.8,4.5,6,4.5,6.4C4.5,6.7,4.8,7,5.1,7h0.6v9.4
		c0,2.4,1.9,4.3,4.3,4.3h3.9c2.4,0,4.3-1.9,4.3-4.3V7h0.6c0.3,0,0.6-0.3,0.6-0.6C19.5,6,19.2,5.8,18.9,5.8z M17,16.4
		c0,1.7-1.4,3-3,3h-3.9c-1.7,0-3-1.4-3-3V7.1H17V16.4z M12,4.5c1,0,1.9,0.5,2.4,1.3H9.6C10.1,5,11,4.5,12,4.5z"/>
</g>
</svg>
