<?xml version="1.0" encoding="utf-8"?>
<!-- Generator: Adobe Illustrator 22.1.0, SVG Export Plug-In . SVG Version: 6.00 Build 0)  -->
<svg version="1.1" id="Layer_1" xmlns="http://www.w3.org/2000/svg" xmlns:xlink="http://www.w3.org/1999/xlink" x="0px" y="0px"
	 viewBox="0 0 24 24" style="enable-background:new 0 0 24 24;" xml:space="preserve">
<style type="text/css">
	.st0{fill:none;}
</style>
<path class="st0" d="M0,0h24v24H0V0z"/>
<g>
	<g>
		<path d="M12,11.9c-2.7,0-5-2.2-5-5s2.2-5,5-5s5,2.2,5,5S14.7,11.9,12,11.9z M12,3.2c-2.1,0-3.8,1.7-3.8,3.8s1.7,3.8,3.8,3.8
			s3.8-1.7,3.8-3.8S14.1,3.2,12,3.2z"/>
	</g>
	<path class="st0" d="M0,0h24v24H0V0z"/>
	<path class="st0" d="M0,0h24v24H0V0z"/>
	<path d="M12,21.4L12,21.4c0-0.4-0.3-0.6-0.6-0.6H6.7c-1.9,0-3.5-1.2-3.5-3.1c0-1.9,1.6-3.2,3.5-3.2h4.7c0.3,0,0.6-0.3,0.6-0.6v0
		c0-0.3-0.3-0.6-0.6-0.6H6.7C4.1,13.2,2,15,2,17.6S4.1,22,6.7,22h4.7C11.8,22,12,21.7,12,21.4z"/>
	<path d="M20.8,17c0,0.3-0.3,0.6-0.6,0.6h-2.5v2.5c0,0.3-0.3,0.6-0.6,0.6c-0.3,0-0.6-0.3-0.6-0.6v-2.5h-2.5c-0.3,0-0.6-0.3-0.6-0.6
		c0-0.3,0.3-0.6,0.6-0.6h2.5v-2.5c0-0.3,0.3-0.6,0.6-0.6c0.3,0,0.6,0.3,0.6,0.6v2.5h2.5C20.5,16.4,20.8,16.7,20.8,17z"/>
</g>
</svg>
