<?xml version="1.0" encoding="utf-8"?>
<!-- Generator: Adobe Illustrator 22.1.0, SVG Export Plug-In . SVG Version: 6.00 Build 0)  -->
<svg version="1.1" id="Capa_1" xmlns="http://www.w3.org/2000/svg" xmlns:xlink="http://www.w3.org/1999/xlink" x="0px" y="0px"
	 viewBox="0 0 24 24" style="enable-background:new 0 0 24 24;" xml:space="preserve">
<style type="text/css">
	.st0{fill:none;}
</style>
<g>
	<rect class="st0" width="24" height="24"/>
	<path d="M20.1,7.1l-6.8-4.9c-0.8-0.5-1.8-0.4-2.4,0.4c-0.5,0.8-0.4,1.8,0.4,2.4l1,0.7L9.7,9.5c-1.8-0.3-3.7,0.3-4.9,1.7
		c-0.1,0.1-0.1,0.1-0.2,0.2c-0.2,0.3-0.1,0.7,0.1,1l3.8,2.7L5,20.2c-0.2,0.3-0.1,0.7,0.1,0.9c0.3,0.2,0.7,0.1,0.9-0.1l3.6-5.1
		l3.7,2.6c0.3,0.1,0.7,0.1,0.9-0.2l0,0c0.1-0.1,0.1-0.2,0.2-0.2c0.9-1.6,0.9-3.5,0.1-5.1l2.7-3.7l1,0.7c0.8,0.5,1.8,0.4,2.4-0.4
		C21.1,8.8,20.9,7.7,20.1,7.1z"/>
</g>
</svg>
