<?xml version="1.0" encoding="utf-8"?>
<!-- Generator: Adobe Illustrator 23.1.0, SVG Export Plug-In . SVG Version: 6.00 Build 0)  -->
<svg version="1.1" id="Capa_1" xmlns="http://www.w3.org/2000/svg" xmlns:xlink="http://www.w3.org/1999/xlink" x="0px" y="0px"
	 viewBox="0 0 24 24" style="enable-background:new 0 0 24 24;" xml:space="preserve">
<style type="text/css">
	.st0{fill:none;}
</style>
<g>
	<rect class="st0" width="24" height="24"/>
	<path d="M16.6,2L8.2,1.9C7.3,2,6.5,2.6,6.5,3.6c0.1,0.9,0.7,1.7,1.7,1.7l1.2,0L9.5,10c-1.6,0.8-2.9,2.4-3,4.2c0,0.1,0,0.1,0,0.3
		c0,0.4,0.3,0.6,0.7,0.8l4.7,0l0.1,6.2c0,0.4,0.3,0.6,0.6,0.7c0.4,0,0.6-0.3,0.7-0.6l0-6.2l4.5,0c0.3-0.1,0.6-0.3,0.6-0.7l0,0
		c0-0.1,0-0.2,0-0.3c-0.2-1.8-1.3-3.4-2.9-4.2l0.1-4.6l1.2,0c0.9-0.1,1.7-0.7,1.7-1.7C18.4,2.8,17.6,2,16.6,2z"/>
</g>
</svg>
