<?xml version="1.0" encoding="utf-8"?>
<!-- Generator: Adobe Illustrator 22.1.0, SVG Export Plug-In . SVG Version: 6.00 Build 0)  -->
<svg version="1.1" id="Layer_1" xmlns="http://www.w3.org/2000/svg" xmlns:xlink="http://www.w3.org/1999/xlink" x="0px" y="0px"
	 viewBox="0 0 24 24" style="enable-background:new 0 0 24 24;" xml:space="preserve">
<style type="text/css">
	.st0{fill:none;}
</style>
<g>
	<path class="st0" d="M0,0h24v24H0V0z"/>
	<g>
		<path d="M12,3.2c4.8,0,8.8,3.9,8.8,8.8s-3.9,8.8-8.8,8.8S3.2,16.8,3.2,12S7.2,3.2,12,3.2 M12,2C6.5,2,2,6.5,2,12s4.5,10,10,10
			s10-4.5,10-10S17.5,2,12,2L12,2z"/>
		<circle cx="12" cy="17.4" r="0.6"/>
		<path d="M15.9,9.5c0-2.1-1.7-3.8-3.8-3.8c-2,0-3.7,1.6-3.8,3.6c0,0.3,0.2,0.6,0.6,0.6c0.3,0,0.6-0.2,0.6-0.6
			c0.1-1.4,1.2-2.5,2.6-2.5c1.4,0,2.6,1.2,2.6,2.6c0,0.9-0.5,1.7-1.2,2.2c-0.1,0-0.8,0.4-0.9,0.6c-0.7,0.6-1.2,1.5-1.3,2.4
			c0,0.2,0,0.3,0,0.5c0,0.3,0.3,0.6,0.6,0.6s0.6-0.3,0.6-0.6c0-0.1,0-0.2,0-0.3c0.1-0.8,0.6-1.5,1.3-1.9
			C15.1,12.2,15.9,10.9,15.9,9.5z"/>
	</g>
</g>
</svg>
