<?xml version="1.0" encoding="utf-8"?>
<!-- Generator: Adobe Illustrator 22.1.0, SVG Export Plug-In . SVG Version: 6.00 Build 0)  -->
<svg version="1.1" id="Layer_1" xmlns="http://www.w3.org/2000/svg" xmlns:xlink="http://www.w3.org/1999/xlink" x="0px" y="0px"
	 viewBox="0 0 24 24" style="enable-background:new 0 0 24 24;" xml:space="preserve">
<style type="text/css">
	.st0{fill:none;}
</style>
<g>
	<path d="M21.8,20.9l-3.4-3.4c1.4-1.7,2.3-3.8,2.3-6.2c0-5.2-4.2-9.4-9.4-9.4C6.2,2,2,6.2,2,11.4c0,5.2,4.2,9.4,9.4,9.4
		c2.4,0,4.5-0.9,6.2-2.3l3.4,3.4c0.2,0.2,0.7,0.2,0.9,0S22.1,21.2,21.8,20.9z M3.3,11.4c0-4.5,3.6-8.1,8.1-8.1
		c4.5,0,8.1,3.6,8.1,8.1s-3.6,8.1-8.1,8.1C6.9,19.5,3.3,15.8,3.3,11.4z"/>
	<path class="st0" d="M0,0h24v24H0V0z"/>
</g>
</svg>
