<?xml version="1.0" encoding="utf-8"?>
<!-- Generator: Adobe Illustrator 22.1.0, SVG Export Plug-In . SVG Version: 6.00 Build 0)  -->
<svg version="1.1" id="Layer_1" xmlns="http://www.w3.org/2000/svg" xmlns:xlink="http://www.w3.org/1999/xlink" x="0px" y="0px"
	 viewBox="0 0 24 24" style="enable-background:new 0 0 24 24;" xml:space="preserve">
<style type="text/css">
	.st0{fill:none;}
</style>
<g>
	<g>
		<path d="M20.1,5.7H3.9c-0.4,0-0.6-0.3-0.6-0.6v0c0-0.4,0.3-0.6,0.6-0.6h16.3c0.4,0,0.6,0.3,0.6,0.6v0C20.8,5.5,20.5,5.7,20.1,5.7z
			"/>
		<path d="M15.1,12.6H3.9c-0.4,0-0.6-0.3-0.6-0.6v0c0-0.4,0.3-0.6,0.6-0.6h11.2c0.4,0,0.6,0.3,0.6,0.6l0,0
			C15.8,12.3,15.5,12.6,15.1,12.6z"/>
		<path d="M10.1,19.5H3.9c-0.4,0-0.6-0.3-0.6-0.6v0c0-0.4,0.3-0.6,0.6-0.6h6.3c0.4,0,0.6,0.3,0.6,0.6v0
			C10.8,19.2,10.5,19.5,10.1,19.5z"/>
	</g>
	<path class="st0" d="M0,0h24v24H0V0z"/>
</g>
</svg>
