<?xml version="1.0" encoding="utf-8"?>
<!-- Generator: Adobe Illustrator 22.1.0, SVG Export Plug-In . SVG Version: 6.00 Build 0)  -->
<svg version="1.1" id="Capa_1" xmlns="http://www.w3.org/2000/svg" xmlns:xlink="http://www.w3.org/1999/xlink" x="0px" y="0px"
	 viewBox="0 0 24 24" style="enable-background:new 0 0 24 24;" xml:space="preserve">
<style type="text/css">
	.st0{fill:none;}
</style>
<g>
	<g>
		<rect class="st0" width="24" height="24"/>
	</g>
	<g>
		<path d="M20.8,7.6c0,0.3-0.3,0.6-0.6,0.6h-7.8c0.1,0.6,0.4,1.2,0.9,1.7l1.1,1.1c0.2,0.2,0.2,0.6,0,0.9c-0.2,0.2-0.6,0.2-0.8,0
			l-1.1-1.1c-1.8-1.8-1.8-4.7,0-6.5l1.1-1c0.2-0.2,0.6-0.2,0.8,0c0.2,0.2,0.2,0.6,0,0.9l-1.1,0.9c-0.5,0.5-0.8,1.2-0.9,1.9h7.8
			C20.5,7,20.8,7.3,20.8,7.6z"/>
		<path d="M3.2,16.4c0-0.3,0.3-0.6,0.6-0.6h7.8c-0.1-0.6-0.4-1.2-0.9-1.7L9.6,13c-0.2-0.2-0.2-0.6,0-0.9c0.2-0.2,0.6-0.2,0.8,0
			l1.1,1.1c1.8,1.8,1.8,4.7,0,6.5l-1.1,1c-0.2,0.2-0.6,0.2-0.8,0c-0.2-0.2-0.2-0.6,0-0.9l1.1-0.9c0.5-0.5,0.8-1.2,0.9-1.9H3.8
			C3.5,17,3.2,16.7,3.2,16.4z"/>
	</g>
</g>
</svg>
