<?xml version="1.0" encoding="utf-8"?>
<!-- Generator: Adobe Illustrator 22.1.0, SVG Export Plug-In . SVG Version: 6.00 Build 0)  -->
<svg version="1.1" id="Layer_1" xmlns="http://www.w3.org/2000/svg" xmlns:xlink="http://www.w3.org/1999/xlink" x="0px" y="0px"
	 viewBox="0 0 24 24" style="enable-background:new 0 0 24 24;" xml:space="preserve">
<style type="text/css">
	.st0{fill:none;}
</style>
<g>
	<path d="M12,2C6.5,2,2,6.5,2,12c0,5.5,4.5,10,10,10c1.5,0,2.7-0.3,4.6-1.1c1-0.4,2.3,1.1,4.2,1.1c0.3,0,0.6-0.1,0.8-0.4
		c0.3-0.3,0.4-0.7,0.4-1.1c0-1.4-1.6-2.8-1-4.2c0.6-1.4,1-2.8,1-4.4C22,6.5,17.5,2,12,2z M12,20.8c-4.9,0-8.8-3.9-8.8-8.8
		c0-4.9,3.9-8.8,8.8-8.8c4.9,0,8.8,3.9,8.8,8.8c0,1.6-0.4,3-1.1,4.3c-0.1,0.2-0.3,0.8,0,1.5c0.3,0.8,0.8,1.6,1.1,2.2
		c0.1,0.2,0,0.5-0.1,0.6c-0.1,0.1-0.5,0.2-0.7,0.1c-0.7-0.4-1.4-0.8-2.3-1.1c-0.5-0.2-1.1-0.1-1.3,0.1C15,20.4,13.6,20.8,12,20.8z"
		/>
	<path class="st0" d="M0,0h24v24H0V0z"/>
</g>
</svg>
