<?xml version="1.0" encoding="utf-8"?>
<!-- Generator: Adobe Illustrator 22.1.0, SVG Export Plug-In . SVG Version: 6.00 Build 0)  -->
<svg version="1.1" id="Layer_1" xmlns="http://www.w3.org/2000/svg" xmlns:xlink="http://www.w3.org/1999/xlink" x="0px" y="0px"
	 viewBox="0 0 24 24" style="enable-background:new 0 0 24 24;" xml:space="preserve">
<style type="text/css">
	.st0{fill:none;}
</style>
<g>
	<path class="st0" d="M0,0h24v24H0V0z"/>
	<g>
		<path d="M14.9,19.8c-0.2,0-0.3-0.1-0.4-0.2l-4.9-4.9c-1.5-1.6-1.5-4.1,0.1-5.6l4.8-4.7c0.2-0.2,0.6-0.2,0.8,0
			c0.2,0.2,0.2,0.6,0,0.8L10.5,10c-1.1,1.1-1.1,2.8,0,3.9l4.9,4.9c0.2,0.2,0.2,0.6,0,0.8C15.2,19.7,15.1,19.8,14.9,19.8z"/>
	</g>
</g>
</svg>
