<?xml version="1.0" encoding="utf-8"?>
<!-- Generator: Adobe Illustrator 22.1.0, SVG Export Plug-In . SVG Version: 6.00 Build 0)  -->
<svg version="1.1" id="Layer_1" xmlns="http://www.w3.org/2000/svg" xmlns:xlink="http://www.w3.org/1999/xlink" x="0px" y="0px"
	 viewBox="0 0 24 24" style="enable-background:new 0 0 24 24;" xml:space="preserve">
<style type="text/css">
	.st0{fill:none;}
</style>
<g>
	<g>
		<path d="M20.8,3.9L20.8,3.9c0-0.3-0.3-0.6-0.6-0.6H3.8c-0.3,0-0.6,0.3-0.6,0.6l0,0c0,0.3,0.3,0.6,0.6,0.6h16.4
			C20.5,4.5,20.8,4.2,20.8,3.9z"/>
		<path d="M20.8,20.1L20.8,20.1c0-0.3-0.3-0.6-0.6-0.6H3.8c-0.3,0-0.6,0.3-0.6,0.6l0,0c0,0.3,0.3,0.6,0.6,0.6h16.4
			C20.5,20.7,20.8,20.5,20.8,20.1z"/>
		<path d="M15,12L15,12c0-0.3-0.3-0.6-0.6-0.6H3.8c-0.3,0-0.6,0.3-0.6,0.6l0,0c0,0.3,0.3,0.6,0.6,0.6h10.6C14.7,12.6,15,12.4,15,12z
			"/>
	</g>
	<path class="st0" d="M0,0h24v24H0V0z"/>
</g>
</svg>
