<?xml version="1.0" encoding="utf-8"?>
<!-- Generator: Adobe Illustrator 22.1.0, SVG Export Plug-In . SVG Version: 6.00 Build 0)  -->
<svg version="1.1" id="Layer_1" xmlns="http://www.w3.org/2000/svg" xmlns:xlink="http://www.w3.org/1999/xlink" x="0px" y="0px"
	 viewBox="0 0 24 24" style="enable-background:new 0 0 24 24;" xml:space="preserve">
<style type="text/css">
	.st0{fill:none;}
</style>
<g>
	<path d="M15.5,4.1c0.6,0,1.2,0.3,1.5,0.8l3.6,6.2c0.3,0.5,0.3,1.2,0,1.7L17,19.1c-0.3,0.5-0.9,0.8-1.5,0.8H8.5
		c-0.6,0-1.2-0.3-1.5-0.8l-3.6-6.2c-0.3-0.5-0.3-1.2,0-1.7L7,4.9c0.3-0.5,0.9-0.8,1.5-0.8H15.5 M15.5,2.8H8.5c-1.1,0-2,0.6-2.5,1.5
		l-3.6,6.2c-0.5,0.9-0.5,2,0,2.9l3.6,6.2c0.5,0.9,1.5,1.5,2.5,1.5h7.1c1.1,0,2-0.6,2.5-1.5l3.6-6.2c0.5-0.9,0.5-2,0-2.9l-3.6-6.2
		C17.6,3.4,16.6,2.8,15.5,2.8L15.5,2.8z"/>
	<path class="st0" d="M0,0h24v24H0V0z"/>
</g>
</svg>
