<?xml version="1.0" encoding="utf-8"?>
<!-- Generator: Adobe Illustrator 22.1.0, SVG Export Plug-In . SVG Version: 6.00 Build 0)  -->
<svg version="1.1" id="Layer_1" xmlns="http://www.w3.org/2000/svg" xmlns:xlink="http://www.w3.org/1999/xlink" x="0px" y="0px"
	 viewBox="0 0 24 24" style="enable-background:new 0 0 24 24;" xml:space="preserve">
<style type="text/css">
	.st0{fill:none;}
</style>
<g>
	<path d="M22,7.9c0-2.3-1.6-4.2-3.8-4.6L17,3.2h-2.5l-0.3-0.3C13,1.7,11,1.7,9.8,2.9L9.5,3.2H7L5.7,3.3C3.6,3.7,2,5.6,2,7.9l0,9.5
		C2,19.9,4.1,22,6.7,22h10.7c2.6,0,4.7-2.1,4.7-4.7L22,7.9z M10.6,3.8c0.8-0.8,2-0.8,2.8,0l1.9,1.9H8.7L10.6,3.8z M16.7,20.8H7.3
		c-2.2,0-4-1.8-4-4l0-8.3c0-2.2,1.8-4,4-4h1L6.7,5.9l0,0C6.6,6.1,6.5,6.2,6.5,6.4C6.5,6.7,6.8,7,7.2,7h9.6c0.3,0,0.6-0.3,0.6-0.6
		c0-0.2-0.1-0.4-0.3-0.5l0,0l-1.4-1.4h0.9c2.2,0,4,1.8,4,4l0,8.3C20.8,19,19,20.8,16.7,20.8z"/>
	<path class="st0" d="M0,0h24v24H0V0z"/>
</g>
</svg>
