<?xml version="1.0" encoding="utf-8"?>
<!-- Generator: Adobe Illustrator 22.1.0, SVG Export Plug-In . SVG Version: 6.00 Build 0)  -->
<svg version="1.1" id="Layer_1" xmlns="http://www.w3.org/2000/svg" xmlns:xlink="http://www.w3.org/1999/xlink" x="0px" y="0px"
	 viewBox="0 0 24 24" style="enable-background:new 0 0 24 24;" xml:space="preserve">
<style type="text/css">
	.st0{fill:none;}
</style>
<g>
	<path d="M20.2,14.1c-0.4-0.4-0.6-0.7-0.7-1.3c0-0.5,0-0.9-0.1-1.4c-0.2-3-2.2-5.6-5-6.6c0.6-0.4,1.1-0.9,1.5-1.5
		c0,0,0.2-0.3,0.3-0.5c0-0.1,0.1-0.2,0.1-0.3c0-0.3-0.3-0.6-0.6-0.6H8.2c-0.3,0-0.6,0.3-0.6,0.6c0,0,0,0,0,0c0,0,0,0,0,0
		C7.5,2.9,7.9,3.3,7.9,3.3C8.3,4,8.8,4.5,9.4,4.9c-2.8,1-5,3.7-5,6.9c0,0.2,0,0.4,0,0.6c0,0.1,0,0.3,0,0.4c0,0.7-0.2,1.1-0.8,1.5
		c-0.1,0-0.1,0.1-0.2,0.1c0,0-0.1,0.1-0.1,0.1l0,0C2.5,15.2,2,16.4,2,17.7c0,2.6,2.1,4.4,4.7,4.4h10.6c2.6,0,4.7-1.8,4.7-4.4
		C22,16.2,21.3,14.9,20.2,14.1z M9.2,3.2h5.3c-0.6,0.8-1.6,1.2-2.7,1.2C10.8,4.4,9.9,3.9,9.2,3.2z M17.2,20.8H6.7
		c-1.9,0-3.5-1.2-3.5-3.1c0-1,0.5-1.9,1.2-2.4l0,0c0.2-0.2,0.4-0.5,0.7-0.7c0.5-0.5,0.7-1,0.7-1.3c0-0.5,0-1,0-1.5
		c0-3.4,2.7-6.1,6-6.2c0,0,0.1,0,0.1,0c0.1,0,0.1,0,0.2,0c3.4,0.1,6.1,2.8,6.1,6.2c0,0.5,0,1,0,1.5c0,0.3,0.1,0.9,0.6,1.3
		c0.2,0.2,0.4,0.4,0.7,0.6c0,0,0,0,0,0c0.8,0.6,1.3,1.4,1.3,2.5C20.8,19.6,19.1,20.8,17.2,20.8z"/>
	<path class="st0" d="M0,0h24v24H0V0z"/>
</g>
</svg>
