<?xml version="1.0" encoding="utf-8"?>
<!-- Generator: Adobe Illustrator 22.1.0, SVG Export Plug-In . SVG Version: 6.00 Build 0)  -->
<svg version="1.1" id="Layer_1" xmlns="http://www.w3.org/2000/svg" xmlns:xlink="http://www.w3.org/1999/xlink" x="0px" y="0px"
	 viewBox="0 0 24 24" style="enable-background:new 0 0 24 24;" xml:space="preserve">
<style type="text/css">
	.st0{fill:none;}
</style>
<g>
	<path d="M22,17L22,17l0-8.3c0-0.1,0-1,0-1.1c0-1-0.8-1.9-1.9-1.9h-0.8C19,3.6,17.1,2,14.8,2L6.7,2C4.1,2,2,4.1,2,6.7l0,10.6
		C2,19.9,4.1,22,6.7,22l10.7,0c2.6,0,4.7-2.1,4.7-4.7L22,17z M20.8,17c-0.2,2.1-1.9,3.7-4,3.7l-9.5,0c-2.2,0-4-1.8-4-4V7.3
		c0-2.2,1.8-4,4-4l7,0c2.2,0,4,1.8,4,4v9.2c0,0,0,0.2,0.2,0.4c0.3,0.3,0.7,0.2,0.9,0c0.1-0.1,0.2-0.4,0.2-0.4l0-9.5h0.7v0
		c0.3,0,0.6,0.3,0.6,0.6c0,0.2,0,0.4,0,0.6v0.3v0.9L20.8,17L20.8,17z"/>
	<path class="st0" d="M0,0h24v24H0V0z"/>
</g>
</svg>
