<?xml version="1.0" encoding="utf-8"?>
<!-- Generator: Adobe Illustrator 22.1.0, SVG Export Plug-In . SVG Version: 6.00 Build 0)  -->
<svg version="1.1" id="Layer_1" xmlns="http://www.w3.org/2000/svg" xmlns:xlink="http://www.w3.org/1999/xlink" x="0px" y="0px"
	 viewBox="0 0 24 24" style="enable-background:new 0 0 24 24;" xml:space="preserve">
<style type="text/css">
	.st0{fill:none;}
</style>
<g>
	<g>
		<path d="M17.3,2H6.7C4.1,2,2,3.8,2,6.4s2.1,4.4,4.7,4.4h10.6c2.6,0,4.7-1.8,4.7-4.4S19.9,2,17.3,2z M17.2,9.5H6.7
			c-1.9,0-3.5-1.2-3.5-3.1c0-1.9,1.6-3.2,3.5-3.2h10.5c1.9,0,3.6,1.3,3.6,3.2C20.8,8.3,19.1,9.5,17.2,9.5z"/>
		<path d="M17.3,13.2H6.7c-2.6,0-4.7,1.8-4.7,4.4S4.1,22,6.7,22h10.6c2.6,0,4.7-1.8,4.7-4.4S19.9,13.2,17.3,13.2z M17.2,20.8H6.7
			c-1.9,0-3.5-1.2-3.5-3.1c0-1.9,1.6-3.2,3.5-3.2h10.5c1.9,0,3.6,1.3,3.6,3.2C20.8,19.6,19.1,20.8,17.2,20.8z"/>
	</g>
	<path class="st0" d="M0,0h24v24H0V0z"/>
</g>
</svg>
